<?xml version="1.0" standalone="yes"?>

<svg version="1.1" viewBox="0.0 0.0 296.5721784776903 102.0" fill="none" stroke="none" stroke-linecap="square" stroke-miterlimit="10" xmlns="http://www.w3.org/2000/svg" xmlns:xlink="http://www.w3.org/1999/xlink"><clipPath id="p.0"><path d="m0 0l296.57217 0l0 102.0l-296.57217 0l0 -102.0z" clip-rule="nonzero"></path></clipPath><g clip-path="url(#p.0)"><path fill="#000000" fill-opacity="0.0" d="m0 0l296.57217 0l0 102.0l-296.57217 0z" fill-rule="nonzero"></path><path fill="#ffffff" d="m2.2860892 34.28609l289.70078 0l0 30.866138l-289.70078 0z" fill-rule="nonzero"></path><path stroke="#000000" stroke-width="1.0" stroke-linejoin="round" stroke-linecap="butt" d="m2.2860892 34.28609l289.70078 0l0 30.866138l-289.70078 0z" fill-rule="nonzero"></path><path fill="#000000" fill-opacity="0.0" d="m143.86089 34.28609l0 30.866138" fill-rule="nonzero"></path><path stroke="#000000" stroke-width="1.0" stroke-linejoin="round" stroke-linecap="butt" d="m143.86089 34.28609l0 30.866138" fill-rule="nonzero"></path><path fill="#000000" fill-opacity="0.0" d="m191.86089 34.28609l0 30.866138" fill-rule="nonzero"></path><path stroke="#000000" stroke-width="1.0" stroke-linejoin="round" stroke-linecap="butt" d="m191.86089 34.28609l0 30.866138" fill-rule="nonzero"></path><path fill="#000000" fill-opacity="0.0" d="m239.86089 34.28609l0 30.866138" fill-rule="nonzero"></path><path stroke="#000000" stroke-width="1.0" stroke-linejoin="round" stroke-linecap="butt" d="m239.86089 34.28609l0 30.866138" fill-rule="nonzero"></path><path fill="#000000" fill-opacity="0.0" d="m21.427822 34.0l126.29921 0l0 18.866142l-126.29921 0z" fill-rule="nonzero"></path><path fill="#000000" d="m31.427822 55.8l0 -9.3125l3.515625 0q0.921875 0 1.40625 0.09375q0.6875 0.109375 1.15625 0.4375q0.46875 0.3125 0.75 0.890625q0.28125 0.578125 0.28125 1.28125q0 1.1875 -0.765625 2.015625q-0.75 0.8125 -2.71875 0.8125l-2.390625 0l0 3.78125l-1.234375 0zm1.234375 -4.875l2.40625 0q1.1875 0 1.6875 -0.4375q0.515625 -0.453125 0.515625 -1.265625q0 -0.578125 -0.296875 -0.984375q-0.296875 -0.421875 -0.78125 -0.5625q-0.3125 -0.078125 -1.15625 -0.078125l-2.375 0l0 3.328125zm10.014755 3.859375l0.15625 1.0q-0.484375 0.109375 -0.859375 0.109375q-0.625 0 -0.96875 -0.203125q-0.34375 -0.203125 -0.484375 -0.515625q-0.140625 -0.328125 -0.140625 -1.34375l0 -3.890625l-0.828125 0l0 -0.875l0.828125 0l0 -1.671875l1.140625 -0.6875l0 2.359375l1.15625 0l0 0.875l-1.15625 0l0 3.953125q0 0.484375 0.0625 0.625q0.0625 0.140625 0.1875 0.21875q0.140625 0.078125 0.390625 0.078125q0.203125 0 0.515625 -0.03125zm1.1873627 1.015625l0 -6.734375l1.03125 0l0 1.015625q0.390625 -0.71875 0.71875 -0.9375q0.34375 -0.234375 0.734375 -0.234375q0.578125 0 1.171875 0.359375l-0.390625 1.0625q-0.421875 -0.25 -0.828125 -0.25q-0.375 0 -0.6875 0.234375q-0.296875 0.21875 -0.421875 0.625q-0.1875 0.609375 -0.1875 1.328125l0 3.53125l-1.140625 0zm3.3914948 2.578125l0 -0.8125l7.578125 0l0 0.8125l-7.578125 0zm8.615601 -2.578125l0 -9.3125l3.515625 0q0.921875 0 1.40625 0.09375q0.6875 0.109375 1.15625 0.4375q0.46875 0.3125 0.75 0.890625q0.28125 0.578125 0.28125 1.28125q0 1.1875 -0.765625 2.015625q-0.75 0.8125 -2.71875 0.8125l-2.390625 0l0 3.78125l-1.234375 0zm1.234375 -4.875l2.40625 0q1.1875 0 1.6875 -0.4375q0.515625 -0.453125 0.515625 -1.265625q0 -0.578125 -0.296875 -0.984375q-0.296875 -0.421875 -0.78125 -0.5625q-0.3125 -0.078125 -1.15625 -0.078125l-2.375 0l0 3.328125zm7.4991264 4.875l0 -6.734375l1.03125 0l0 1.015625q0.390625 -0.71875 0.71875 -0.9375q0.34375 -0.234375 0.734375 -0.234375q0.578125 0 1.171875 0.359375l-0.390625 1.0625q-0.421875 -0.25 -0.828125 -0.25q-0.375 0 -0.6875 0.234375q-0.296875 0.21875 -0.421875 0.625q-0.1875 0.609375 -0.1875 1.328125l0 3.53125l-1.140625 0zm9.06337 -2.171875l1.1875 0.140625q-0.28125 1.046875 -1.046875 1.625q-0.75 0.5625 -1.921875 0.5625q-1.484375 0 -2.359375 -0.90625q-0.859375 -0.921875 -0.859375 -2.5625q0 -1.703125 0.875 -2.640625q0.890625 -0.9375 2.28125 -0.9375q1.359375 0 2.203125 0.921875q0.859375 0.921875 0.859375 2.578125q0 0.109375 0 0.3125l-5.03125 0q0.0625 1.109375 0.625 1.703125q0.5625 0.59375 1.40625 0.59375q0.640625 0 1.078125 -0.328125q0.453125 -0.34375 0.703125 -1.0625zm-3.75 -1.84375l3.765625 0q-0.078125 -0.859375 -0.4375 -1.28125q-0.546875 -0.65625 -1.40625 -0.65625q-0.796875 0 -1.328125 0.53125q-0.53125 0.515625 -0.59375 1.40625zm6.8187256 4.015625l0 -5.859375l-1.0 0l0 -0.875l1.0 0l0 -0.71875q0 -0.6875 0.125 -1.015625q0.171875 -0.4375 0.578125 -0.71875q0.421875 -0.28125 1.171875 -0.28125q0.484375 0 1.0625 0.125l-0.171875 0.984375q-0.359375 -0.0625 -0.671875 -0.0625q-0.515625 0 -0.734375 0.234375q-0.21875 0.21875 -0.21875 0.828125l0 0.625l1.3125 0l0 0.875l-1.3125 0l0 5.859375l-1.140625 0zm3.4373627 -7.984375l0 -1.328125l1.140625 0l0 1.328125l-1.140625 0zm0 7.984375l0 -6.734375l1.140625 0l0 6.734375l-1.140625 0zm2.195465 0l2.46875 -3.5l-2.28125 -3.234375l1.421875 0l1.046875 1.578125q0.28125 0.453125 0.46875 0.75q0.265625 -0.421875 0.5 -0.734375l1.140625 -1.59375l1.375 0l-2.34375 3.171875l2.515625 3.5625l-1.40625 0l-1.375 -2.09375l-0.375 -0.5625l-1.765625 2.65625l-1.390625 0z" fill-rule="nonzero"></path><path fill="#000000" fill-opacity="0.0" d="m141.42783 34.0l55.716537 0l0 18.866142l-55.716537 0z" fill-rule="nonzero"></path><path fill="#000000" d="m152.33408 55.8l-1.0625 0l0 -9.3125l1.15625 0l0 3.328125q0.71875 -0.90625 1.84375 -0.90625q0.625 0 1.171875 0.25q0.5625 0.25 0.921875 0.703125q0.359375 0.453125 0.5625 1.09375q0.203125 0.640625 0.203125 1.375q0 1.734375 -0.859375 2.6875q-0.859375 0.9375 -2.0625 0.9375q-1.1875 0 -1.875 -1.0l0 0.84375zm-0.015625 -3.421875q0 1.21875 0.34375 1.75q0.53125 0.890625 1.453125 0.890625q0.75 0 1.296875 -0.65625q0.546875 -0.65625 0.546875 -1.9375q0 -1.328125 -0.53125 -1.953125q-0.515625 -0.625 -1.265625 -0.625q-0.75 0 -1.296875 0.65625q-0.546875 0.640625 -0.546875 1.875zm6.3343506 6.015625l-0.140625 -1.0625q0.375 0.09375 0.65625 0.09375q0.390625 0 0.609375 -0.125q0.234375 -0.125 0.375 -0.359375q0.109375 -0.171875 0.359375 -0.84375q0.03125 -0.09375 0.09375 -0.28125l-2.5625 -6.75l1.234375 0l1.40625 3.890625q0.265625 0.75 0.484375 1.5625q0.203125 -0.78125 0.46875 -1.53125l1.453125 -3.921875l1.140625 0l-2.5625 6.84375q-0.421875 1.109375 -0.640625 1.53125q-0.3125 0.5625 -0.703125 0.828125q-0.390625 0.265625 -0.9375 0.265625q-0.328125 0 -0.734375 -0.140625zm9.2109375 -3.609375l0.15625 1.0q-0.484375 0.109375 -0.859375 0.109375q-0.625 0 -0.96875 -0.203125q-0.34375 -0.203125 -0.484375 -0.515625q-0.140625 -0.328125 -0.140625 -1.34375l0 -3.890625l-0.828125 0l0 -0.875l0.828125 0l0 -1.671875l1.140625 -0.6875l0 2.359375l1.15625 0l0 0.875l-1.15625 0l0 3.953125q0 0.484375 0.0625 0.625q0.0625 0.140625 0.1875 0.21875q0.140625 0.078125 0.390625 0.078125q0.203125 0 0.515625 -0.03125zm5.8123627 -1.15625l1.1875 0.140625q-0.28125 1.046875 -1.046875 1.625q-0.75 0.5625 -1.921875 0.5625q-1.484375 0 -2.359375 -0.90625q-0.859375 -0.921875 -0.859375 -2.5625q0 -1.703125 0.875 -2.640625q0.890625 -0.9375 2.28125 -0.9375q1.359375 0 2.203125 0.921875q0.859375 0.921875 0.859375 2.578125q0 0.109375 0 0.3125l-5.03125 0q0.0625 1.109375 0.625 1.703125q0.5625 0.59375 1.40625 0.59375q0.640625 0 1.078125 -0.328125q0.453125 -0.34375 0.703125 -1.0625zm-3.75 -1.84375l3.765625 0q-0.078125 -0.859375 -0.4375 -1.28125q-0.546875 -0.65625 -1.40625 -0.65625q-0.796875 0 -1.328125 0.53125q-0.53125 0.515625 -0.59375 1.40625zm10.537476 4.015625l-1.140625 0l0 -7.28125q-0.421875 0.390625 -1.09375 0.796875q-0.65625 0.390625 -1.1875 0.578125l0 -1.109375q0.953125 -0.4375 1.671875 -1.078125q0.71875 -0.640625 1.015625 -1.25l0.734375 0l0 9.34375z" fill-rule="nonzero"></path><path fill="#000000" fill-opacity="0.0" d="m189.42783 34.0l55.716537 0l0 18.866142l-55.716537 0z" fill-rule="nonzero"></path><path fill="#000000" d="m200.33408 55.8l-1.0625 0l0 -9.3125l1.15625 0l0 3.328125q0.71875 -0.90625 1.84375 -0.90625q0.625 0 1.171875 0.25q0.5625 0.25 0.921875 0.703125q0.359375 0.453125 0.5625 1.09375q0.203125 0.640625 0.203125 1.375q0 1.734375 -0.859375 2.6875q-0.859375 0.9375 -2.0625 0.9375q-1.1875 0 -1.875 -1.0l0 0.84375zm-0.015625 -3.421875q0 1.21875 0.34375 1.75q0.53125 0.890625 1.453125 0.890625q0.75 0 1.296875 -0.65625q0.546875 -0.65625 0.546875 -1.9375q0 -1.328125 -0.53125 -1.953125q-0.515625 -0.625 -1.265625 -0.625q-0.75 0 -1.296875 0.65625q-0.546875 0.640625 -0.546875 1.875zm6.3343506 6.015625l-0.140625 -1.0625q0.375 0.09375 0.65625 0.09375q0.390625 0 0.609375 -0.125q0.234375 -0.125 0.375 -0.359375q0.109375 -0.171875 0.359375 -0.84375q0.03125 -0.09375 0.09375 -0.28125l-2.5625 -6.75l1.234375 0l1.40625 3.890625q0.265625 0.75 0.484375 1.5625q0.203125 -0.78125 0.46875 -1.53125l1.453125 -3.921875l1.140625 0l-2.5625 6.84375q-0.421875 1.109375 -0.640625 1.53125q-0.3125 0.5625 -0.703125 0.828125q-0.390625 0.265625 -0.9375 0.265625q-0.328125 0 -0.734375 -0.140625zm9.2109375 -3.609375l0.15625 1.0q-0.484375 0.109375 -0.859375 0.109375q-0.625 0 -0.96875 -0.203125q-0.34375 -0.203125 -0.484375 -0.515625q-0.140625 -0.328125 -0.140625 -1.34375l0 -3.890625l-0.828125 0l0 -0.875l0.828125 0l0 -1.671875l1.140625 -0.6875l0 2.359375l1.15625 0l0 0.875l-1.15625 0l0 3.953125q0 0.484375 0.0625 0.625q0.0625 0.140625 0.1875 0.21875q0.140625 0.078125 0.390625 0.078125q0.203125 0 0.515625 -0.03125zm5.8123627 -1.15625l1.1875 0.140625q-0.28125 1.046875 -1.046875 1.625q-0.75 0.5625 -1.921875 0.5625q-1.484375 0 -2.359375 -0.90625q-0.859375 -0.921875 -0.859375 -2.5625q0 -1.703125 0.875 -2.640625q0.890625 -0.9375 2.28125 -0.9375q1.359375 0 2.203125 0.921875q0.859375 0.921875 0.859375 2.578125q0 0.109375 0 0.3125l-5.03125 0q0.0625 1.109375 0.625 1.703125q0.5625 0.59375 1.40625 0.59375q0.640625 0 1.078125 -0.328125q0.453125 -0.34375 0.703125 -1.0625zm-3.75 -1.84375l3.765625 0q-0.078125 -0.859375 -0.4375 -1.28125q-0.546875 -0.65625 -1.40625 -0.65625q-0.796875 0 -1.328125 0.53125q-0.53125 0.515625 -0.59375 1.40625zm12.240601 2.921875l0 1.09375l-6.15625 0q-0.015625 -0.40625 0.140625 -0.796875q0.234375 -0.625 0.75 -1.234375q0.515625 -0.609375 1.5 -1.40625q1.515625 -1.25 2.046875 -1.96875q0.53125 -0.734375 0.53125 -1.375q0 -0.6875 -0.484375 -1.140625q-0.484375 -0.46875 -1.265625 -0.46875q-0.828125 0 -1.328125 0.5q-0.484375 0.484375 -0.5 1.359375l-1.171875 -0.125q0.125 -1.3125 0.90625 -2.0q0.78125 -0.6875 2.109375 -0.6875q1.34375 0 2.125 0.75q0.78125 0.734375 0.78125 1.828125q0 0.5625 -0.234375 1.109375q-0.21875 0.53125 -0.75 1.140625q-0.53125 0.59375 -1.765625 1.625q-1.03125 0.859375 -1.328125 1.171875q-0.28125 0.3125 -0.46875 0.625l4.5625 0z" fill-rule="nonzero"></path><path fill="#000000" fill-opacity="0.0" d="m237.42783 34.0l55.716522 0l0 18.866142l-55.716522 0z" fill-rule="nonzero"></path><path fill="#000000" d="m248.33408 55.8l-1.0625 0l0 -9.3125l1.15625 0l0 3.328125q0.71875 -0.90625 1.84375 -0.90625q0.625 0 1.171875 0.25q0.5625 0.25 0.921875 0.703125q0.359375 0.453125 0.5625 1.09375q0.203125 0.640625 0.203125 1.375q0 1.734375 -0.859375 2.6875q-0.859375 0.9375 -2.0625 0.9375q-1.1875 0 -1.875 -1.0l0 0.84375zm-0.015625 -3.421875q0 1.21875 0.34375 1.75q0.53125 0.890625 1.453125 0.890625q0.75 0 1.296875 -0.65625q0.546875 -0.65625 0.546875 -1.9375q0 -1.328125 -0.53125 -1.953125q-0.515625 -0.625 -1.265625 -0.625q-0.75 0 -1.296875 0.65625q-0.546875 0.640625 -0.546875 1.875zm6.3343506 6.015625l-0.140625 -1.0625q0.375 0.09375 0.65625 0.09375q0.390625 0 0.609375 -0.125q0.234375 -0.125 0.375 -0.359375q0.109375 -0.171875 0.359375 -0.84375q0.03125 -0.09375 0.09375 -0.28125l-2.5625 -6.75l1.234375 0l1.40625 3.890625q0.265625 0.75 0.484375 1.5625q0.203125 -0.78125 0.46875 -1.53125l1.453125 -3.921875l1.140625 0l-2.5625 6.84375q-0.421875 1.109375 -0.640625 1.53125q-0.3125 0.5625 -0.703125 0.828125q-0.390625 0.265625 -0.9375 0.265625q-0.328125 0 -0.734375 -0.140625zm9.2109375 -3.609375l0.15625 1.0q-0.484375 0.109375 -0.859375 0.109375q-0.625 0 -0.96875 -0.203125q-0.34375 -0.203125 -0.484375 -0.515625q-0.140625 -0.328125 -0.140625 -1.34375l0 -3.890625l-0.828125 0l0 -0.875l0.828125 0l0 -1.671875l1.140625 -0.6875l0 2.359375l1.15625 0l0 0.875l-1.15625 0l0 3.953125q0 0.484375 0.0625 0.625q0.0625 0.140625 0.1875 0.21875q0.140625 0.078125 0.390625 0.078125q0.203125 0 0.515625 -0.03125zm5.8123474 -1.15625l1.1875 0.140625q-0.28125 1.046875 -1.046875 1.625q-0.75 0.5625 -1.921875 0.5625q-1.484375 0 -2.359375 -0.90625q-0.859375 -0.921875 -0.859375 -2.5625q0 -1.703125 0.875 -2.640625q0.890625 -0.9375 2.28125 -0.9375q1.359375 0 2.203125 0.921875q0.859375 0.921875 0.859375 2.578125q0 0.109375 0 0.3125l-5.03125 0q0.0625 1.109375 0.625 1.703125q0.5625 0.59375 1.40625 0.59375q0.640625 0 1.078125 -0.328125q0.453125 -0.34375 0.703125 -1.0625zm-3.75 -1.84375l3.765625 0q-0.078125 -0.859375 -0.4375 -1.28125q-0.546875 -0.65625 -1.40625 -0.65625q-0.796875 0 -1.328125 0.53125q-0.53125 0.515625 -0.59375 1.40625zm6.2406006 1.5625l1.140625 -0.15625q0.203125 0.96875 0.671875 1.40625q0.46875 0.421875 1.15625 0.421875q0.796875 0 1.34375 -0.546875q0.5625 -0.5625 0.5625 -1.390625q0 -0.796875 -0.515625 -1.296875q-0.5 -0.515625 -1.296875 -0.515625q-0.328125 0 -0.8125 0.125l0.125 -1.0q0.125 0.015625 0.1875 0.015625q0.734375 0 1.3125 -0.375q0.59375 -0.390625 0.59375 -1.1875q0 -0.625 -0.4375 -1.03125q-0.421875 -0.421875 -1.09375 -0.421875q-0.671875 0 -1.109375 0.421875q-0.4375 0.421875 -0.578125 1.25l-1.140625 -0.203125q0.21875 -1.140625 0.953125 -1.765625q0.75 -0.640625 1.84375 -0.640625q0.765625 0 1.40625 0.328125q0.640625 0.328125 0.984375 0.890625q0.34375 0.5625 0.34375 1.203125q0 0.59375 -0.328125 1.09375q-0.328125 0.5 -0.953125 0.78125q0.8125 0.203125 1.265625 0.796875q0.46875 0.59375 0.46875 1.5q0 1.21875 -0.890625 2.078125q-0.890625 0.84375 -2.25 0.84375q-1.21875 0 -2.03125 -0.734375q-0.8125 -0.734375 -0.921875 -1.890625z" fill-rule="nonzero"></path><path fill="#000000" fill-opacity="0.0" d="m3.1417322 80.0l289.7323 0" fill-rule="nonzero"></path><path stroke="#000000" stroke-width="1.0" stroke-linejoin="round" stroke-linecap="butt" stroke-dasharray="4.0,3.0" d="m6.568819 80.0l282.8781 0" fill-rule="evenodd"></path><path fill="#000000" stroke="#000000" stroke-width="1.0" stroke-linecap="butt" d="m6.568819 80.0l1.1245832 -1.1245804l-3.089768 1.1245804l3.089768 1.1245804z" fill-rule="evenodd"></path><path fill="#000000" stroke="#000000" stroke-width="1.0" stroke-linecap="butt" d="m289.44693 80.0l-1.1245728 1.1245804l3.0897522 -1.1245804l-3.0897522 -1.1245804z" fill-rule="evenodd"></path><path fill="#000000" fill-opacity="0.0" d="m117.42782 74.0l74.42519 0l0 18.866142l-74.42519 0z" fill-rule="nonzero"></path><path fill="#000000" d="m132.89658 88.76875l-1.140625 0.09375q-0.140625 -0.671875 -0.421875 -0.984375q-0.46875 -0.484375 -1.140625 -0.484375q-0.546875 0 -0.96875 0.3125q-0.53125 0.390625 -0.84375 1.140625q-0.3125 0.75 -0.328125 2.15625q0.40625 -0.625 1.0 -0.921875q0.609375 -0.3125 1.265625 -0.3125q1.140625 0 1.9375 0.84375q0.8125 0.828125 0.8125 2.171875q0 0.875 -0.390625 1.625q-0.375 0.75 -1.03125 1.15625q-0.65625 0.390625 -1.5 0.390625q-1.421875 0 -2.3281326 -1.046875q-0.90625 -1.046875 -0.90625 -3.46875q0 -2.6875 1.0 -3.921875q0.8750076 -1.0625 2.3437576 -1.0625q1.09375 0 1.796875 0.625q0.703125 0.609375 0.84375 1.6875zm-4.671875 4.015625q0 0.59375 0.25 1.140625q0.25 0.53125 0.703125 0.8125q0.453125 0.28125 0.953125 0.28125q0.71875 0 1.234375 -0.578125q0.53125 -0.59375 0.53125 -1.59375q0 -0.96875 -0.515625 -1.515625q-0.515625 -0.5625 -1.296875 -0.5625q-0.78125 0 -1.328125 0.5625q-0.53125 0.546875 -0.53125 1.453125zm9.818726 3.015625l0 -2.234375l-4.03125 0l0 -1.046875l4.234375 -6.03125l0.9375 0l0 6.03125l1.265625 0l0 1.046875l-1.265625 0l0 2.234375l-1.140625 0zm0 -3.28125l0 -4.1875l-2.921875 4.1875l2.921875 0zm3.6156006 0.484375l0 -1.140625l3.515625 0l0 1.140625l-3.515625 0zm5.9383698 2.796875l-1.0625 0l0 -9.3125l1.15625 0l0 3.328125q0.71875 -0.90625 1.84375 -0.90625q0.625 0 1.171875 0.25q0.5625 0.25 0.921875 0.703125q0.359375 0.453125 0.5625 1.09375q0.203125 0.640625 0.203125 1.375q0 1.734375 -0.859375 2.6875q-0.859375 0.9375 -2.0625 0.9375q-1.1875 0 -1.875 -1.0l0 0.84375zm-0.015625 -3.421875q0 1.21875 0.34375 1.75q0.53125 0.890625 1.453125 0.890625q0.75 0 1.296875 -0.65625q0.546875 -0.65625 0.546875 -1.9375q0 -1.328125 -0.53125 -1.953125q-0.515625 -0.625 -1.265625 -0.625q-0.75 0 -1.296875 0.65625q-0.546875 0.640625 -0.546875 1.875zm6.3812256 -4.5625l0 -1.328125l1.140625 0l0 1.328125l-1.140625 0zm0 7.984375l0 -6.734375l1.140625 0l0 6.734375l-1.140625 0zm5.46109 -1.015625l0.15625 1.0q-0.484375 0.109375 -0.859375 0.109375q-0.625 0 -0.96875 -0.203125q-0.34375 -0.203125 -0.484375 -0.515625q-0.140625 -0.328125 -0.140625 -1.34375l0 -3.890625l-0.828125 0l0 -0.875l0.828125 0l0 -1.671875l1.140625 -0.6875l0 2.359375l1.15625 0l0 0.875l-1.15625 0l0 3.953125q0 0.484375 0.0625 0.625q0.0625 0.140625 0.1875 0.21875q0.140625 0.078125 0.390625 0.078125q0.203125 0 0.515625 -0.03125zm0.7498627 -1.0l1.125 -0.171875q0.09375 0.671875 0.53125 1.046875q0.4375 0.359375 1.21875 0.359375q0.78125 0 1.15625 -0.3125q0.390625 -0.328125 0.390625 -0.765625q0 -0.390625 -0.34375 -0.609375q-0.234375 -0.15625 -1.171875 -0.390625q-1.25 -0.3125 -1.734375 -0.546875q-0.484375 -0.234375 -0.734375 -0.640625q-0.25 -0.40625 -0.25 -0.90625q0 -0.453125 0.203125 -0.828125q0.203125 -0.390625 0.5625 -0.640625q0.265625 -0.203125 0.71875 -0.328125q0.46875 -0.140625 1.0 -0.140625q0.78125 0 1.375 0.234375q0.609375 0.21875 0.890625 0.609375q0.296875 0.390625 0.40625 1.046875l-1.125 0.15625q-0.078125 -0.53125 -0.4375 -0.8125q-0.359375 -0.296875 -1.03125 -0.296875q-0.78125 0 -1.125 0.265625q-0.34375 0.25 -0.34375 0.609375q0 0.21875 0.140625 0.390625q0.140625 0.1875 0.4375 0.3125q0.171875 0.0625 1.015625 0.28125q1.21875 0.328125 1.6875 0.53125q0.484375 0.203125 0.75 0.609375q0.28125 0.390625 0.28125 0.96875q0 0.578125 -0.34375 1.078125q-0.328125 0.5 -0.953125 0.78125q-0.625 0.28125 -1.421875 0.28125q-1.3125 0 -2.0 -0.546875q-0.6875 -0.546875 -0.875 -1.625z" fill-rule="nonzero"></path><path fill="#000000" fill-opacity="0.0" d="m3.1417322 24.0l140.56693 0" fill-rule="nonzero"></path><path stroke="#000000" stroke-width="1.0" stroke-linejoin="round" stroke-linecap="butt" stroke-dasharray="4.0,3.0" d="m6.568819 24.0l133.71277 0" fill-rule="evenodd"></path><path fill="#000000" stroke="#000000" stroke-width="1.0" stroke-linecap="butt" d="m6.568819 24.0l1.1245832 -1.1245842l-3.089768 1.1245842l3.089768 1.1245842z" fill-rule="evenodd"></path><path fill="#000000" stroke="#000000" stroke-width="1.0" stroke-linecap="butt" d="m140.28157 24.0l-1.1245728 1.1245842l3.0897675 -1.1245842l-3.0897675 -1.1245842z" fill-rule="evenodd"></path><path fill="#000000" fill-opacity="0.0" d="m45.427822 -6.0l74.4252 0l0 18.866142l-74.4252 0z" fill-rule="nonzero"></path><path fill="#000000" d="m58.630947 15.799999l0 -2.234375l-4.03125 0l0 -1.046875l4.234375 -6.03125l0.9375 0l0 6.03125l1.265625 0l0 1.046875l-1.265625 0l0 2.234375l-1.140625 0zm0 -3.28125l0 -4.1875l-2.921875 4.1875l2.921875 0zm3.7562256 -1.3125q0 -1.640625 0.328125 -2.640625q0.34375 -1.015625 1.015625 -1.5625q0.6718712 -0.546875 1.6874962 -0.546875q0.75 0 1.3125 0.3125q0.5625 0.296875 0.921875 0.859375q0.375 0.5625 0.578125 1.390625q0.21875 0.8125 0.21875 2.1875q0 1.640625 -0.34375 2.65625q-0.328125 1.0 -1.0 1.546875q-0.671875 0.546875 -1.6875 0.546875q-1.34375 0 -2.1249962 -0.96875q-0.90625 -1.15625 -0.90625 -3.78125zm1.171875 0q0 2.296875 0.5312462 3.0625q0.53125 0.75 1.328125 0.75q0.78125 0 1.3125 -0.75q0.546875 -0.765625 0.546875 -3.0625q0 -2.296875 -0.546875 -3.046875q-0.53125 -0.75 -1.328125 -0.75q-0.78125 0 -1.265625 0.65625q-0.5781212 0.859375 -0.5781212 3.140625zm6.099972 1.796875l0 -1.140625l3.515625 0l0 1.140625l-3.515625 0zm5.9383698 2.796875l-1.0625 0l0 -9.3125l1.15625 0l0 3.328125q0.71875 -0.90625 1.84375 -0.90625q0.625 0 1.171875 0.25q0.5625 0.25 0.921875 0.703125q0.359375 0.453125 0.5625 1.09375q0.203125 0.640625 0.203125 1.375q0 1.734375 -0.859375 2.6875q-0.859375 0.9375 -2.0625 0.9375q-1.1875 0 -1.875 -1.0l0 0.84375zm-0.015625 -3.421875q0 1.21875 0.34375 1.75q0.53125 0.890625 1.453125 0.890625q0.75 0 1.296875 -0.65625q0.546875 -0.65625 0.546875 -1.9375q0 -1.328125 -0.53125 -1.953125q-0.515625 -0.625 -1.265625 -0.625q-0.75 0 -1.296875 0.65625q-0.546875 0.640625 -0.546875 1.875zm6.3812256 -4.5625l0 -1.328125l1.140625 0l0 1.328125l-1.140625 0zm0 7.984375l0 -6.734375l1.140625 0l0 6.734375l-1.140625 0zm5.46109 -1.015625l0.15625 1.0q-0.484375 0.109375 -0.859375 0.109375q-0.625 0 -0.96875 -0.203125q-0.34375 -0.203125 -0.484375 -0.515625q-0.140625 -0.328125 -0.140625 -1.34375l0 -3.890625l-0.828125 0l0 -0.875l0.828125 0l0 -1.671875l1.140625 -0.6875l0 2.359375l1.15625 0l0 0.875l-1.15625 0l0 3.953125q0 0.484375 0.0625 0.625q0.0625 0.140625 0.1875 0.21875q0.140625 0.078125 0.390625 0.078125q0.203125 0 0.515625 -0.03125zm0.7498627 -1.0l1.125 -0.171875q0.09375 0.671875 0.53125 1.046875q0.4375 0.359375 1.21875 0.359375q0.78125 0 1.15625 -0.3125q0.390625 -0.328125 0.390625 -0.765625q0 -0.390625 -0.34375 -0.609375q-0.234375 -0.15625 -1.171875 -0.390625q-1.25 -0.3125 -1.734375 -0.546875q-0.484375 -0.234375 -0.734375 -0.640625q-0.25 -0.40625 -0.25 -0.90625q0 -0.453125 0.203125 -0.828125q0.203125 -0.390625 0.5625 -0.640625q0.265625 -0.203125 0.71875 -0.328125q0.46875 -0.140625 1.0 -0.140625q0.78125 0 1.375 0.234375q0.609375 0.21875 0.890625 0.609375q0.296875 0.390625 0.40625 1.046875l-1.125 0.15625q-0.078125 -0.53125 -0.4375 -0.8125q-0.359375 -0.296875 -1.03125 -0.296875q-0.78125 0 -1.125 0.265625q-0.34375 0.25 -0.34375 0.609375q0 0.21875 0.140625 0.390625q0.140625 0.1875 0.4375 0.3125q0.171875 0.0625 1.015625 0.28125q1.21875 0.328125 1.6875 0.53125q0.484375 0.203125 0.75 0.609375q0.28125 0.390625 0.28125 0.96875q0 0.578125 -0.34375 1.078125q-0.328125 0.5 -0.953125 0.78125q-0.625 0.28125 -1.421875 0.28125q-1.3125 0 -2.0 -0.546875q-0.6875 -0.546875 -0.875 -1.625z" fill-rule="nonzero"></path></g></svg>

